<?xml version="1.0" encoding="utf-8"?>
<!-- Generator: Adobe Illustrator 18.0.0, SVG Export Plug-In . SVG Version: 6.00 Build 0)  -->
<!DOCTYPE svg PUBLIC "-//W3C//DTD SVG 1.1//EN" "http://www.w3.org/Graphics/SVG/1.1/DTD/svg11.dtd">
<svg version="1.1" id="Layer_1" xmlns="http://www.w3.org/2000/svg" xmlns:xlink="http://www.w3.org/1999/xlink" x="0px" y="0px"
	 viewBox="0 0 430 300" enable-background="new 0 0 430 300" xml:space="preserve">
<g>
	<path fill="none" stroke="#FDEB00" stroke-width="2.126" stroke-miterlimit="10" d="M318.7,242.7H78.5c-1.7,0-3-1.3-3-3v-146
		c0-1.7,1.3-3,3-3h240.2c1.7,0,3,1.3,3,3v146C321.7,241.3,320.3,242.7,318.7,242.7z"/>
	<line fill="none" stroke="#FDEB00" stroke-width="1.4173" stroke-miterlimit="10" x1="75.5" y1="107" x2="321.7" y2="107"/>
	<line fill="none" stroke="#FDEB00" stroke-width="1.4173" stroke-miterlimit="10" x1="75.5" y1="225.1" x2="321.7" y2="225.1"/>
	<circle fill="#FDEB00" cx="198.6" cy="98.9" r="2"/>
	<g>
		<path fill="none" stroke="#FDEB00" stroke-width="2.126" stroke-miterlimit="10" d="M214.4,209.1H106c-1.1,0-2-0.9-2-2v-70.6
			c0-1.1,0.9-2,2-2h108.4c1.1,0,2,0.9,2,2v70.6C216.4,208.2,215.5,209.1,214.4,209.1z"/>

			<polyline fill="none" stroke="#FDEB00" stroke-width="1.4173" stroke-linecap="round" stroke-linejoin="round" stroke-miterlimit="10" points="
			200.6,190.6 205.5,194.2 200.6,197.8 		"/>

			<polyline fill="none" stroke="#FDEB00" stroke-width="1.4173" stroke-linecap="round" stroke-linejoin="round" stroke-miterlimit="10" points="
			120.8,152.7 115.9,149.1 120.8,145.5 		"/>

			<line fill="none" stroke="#FDEB00" stroke-width="1.4173" stroke-linecap="round" stroke-linejoin="round" stroke-miterlimit="10" x1="197.7" y1="184.2" x2="190.7" y2="199.7"/>
	</g>
	<path fill="#f6f7f7" stroke="#FDEB00" stroke-width="2.126" stroke-miterlimit="10" d="M265,166.7h-60c-1.1,0-2-0.9-2-2v-38.4
		c0-1.1,0.9-2,2-2h60c1.1,0,2,0.9,2,2v38.4C267,165.8,266.1,166.7,265,166.7z"/>
	<g>
		<circle fill="#FDEB00" cx="208.4" cy="129.6" r="1.1"/>
		<circle fill="#FDEB00" cx="212" cy="129.6" r="1.1"/>
		<circle fill="#FDEB00" cx="215.6" cy="129.6" r="1.1"/>
	</g>
	<rect x="170.5" y="242.7" fill="none" stroke="#FDEB00" stroke-width="2.126" stroke-miterlimit="10" width="56.2" height="29.2"/>
	<path fill="none" stroke="#FDEB00" stroke-width="2.126" stroke-miterlimit="10" d="M247.4,278.8h-97.5c-1,0-1.9-0.8-1.9-1.9v-3.2
		c0-1,0.8-1.9,1.9-1.9h97.5c1,0,1.9,0.8,1.9,1.9v3.2C249.2,278,248.4,278.8,247.4,278.8z"/>
	<g>
		<path fill="none" stroke="#FDEB00" stroke-width="2.126" stroke-miterlimit="10" d="M52.7,265.3v-27.3c0-1.7-1.3-3-3-3H19.9
			c-1.7,0-3,1.3-3,3v27.3v-19.8v33.2h35.9v-33.2"/>
		<path fill="none" stroke="#FDEB00" stroke-width="2.126" stroke-miterlimit="10" d="M16.9,247.4c-5.3,0-9.6,4.3-9.6,9.6
			c0,5.3,4.3,9.6,9.6,9.6"/>
		<g>

				<line fill="none" stroke="#FDEB00" stroke-width="2.126" stroke-linecap="round" stroke-linejoin="round" stroke-miterlimit="10" x1="30.6" y1="204.5" x2="30.6" y2="225.4"/>

				<line fill="none" stroke="#FDEB00" stroke-width="2.126" stroke-linecap="round" stroke-linejoin="round" stroke-miterlimit="10" x1="39" y1="215.8" x2="39" y2="225.4"/>
		</g>

			<circle fill="none" stroke="#FDEB00" stroke-width="1.4173" stroke-linecap="round" stroke-linejoin="round" stroke-miterlimit="10" cx="34.8" cy="256.9" r="8.8"/>
	</g>

		<path fill="none" stroke="#FDEB00" stroke-width="2.126" stroke-linecap="round" stroke-linejoin="round" stroke-miterlimit="10" d="
		M316.4,52.3c0,7.9-6.4,14.2-14.2,14.2c-7.9,0-14.2-6.4-14.2-14.2"/>
	<g>
		<path fill="none" stroke="#FDEB00" stroke-width="2.126" stroke-miterlimit="10" d="M347,278.8h61.8c1.1,0,2-0.9,2-2v-3.4
			c0-1.1-0.9-2-2-2H347c-1.1,0-2,0.9-2,2v3.4C345,277.9,345.9,278.8,347,278.8z"/>
		<circle fill="none" stroke="#FDEB00" stroke-width="2.126" stroke-miterlimit="10" cx="413.7" cy="140.5" r="9"/>
		<line fill="none" stroke="#FDEB00" stroke-width="2.126" stroke-miterlimit="10" x1="412.8" y1="131.5" x2="342.8" y2="48.8"/>
		<line fill="none" stroke="#FDEB00" stroke-width="2.126" stroke-miterlimit="10" x1="405.6" y1="136.5" x2="336.6" y2="55"/>
		<line fill="none" stroke="#FDEB00" stroke-width="2.126" stroke-miterlimit="10" x1="409.8" y1="148.7" x2="374.6" y2="250.3"/>
		<line fill="none" stroke="#FDEB00" stroke-width="2.126" stroke-miterlimit="10" x1="419.6" y1="147.4" x2="383.9" y2="250.8"/>
		<polyline fill="none" stroke="#FDEB00" stroke-width="2.126" stroke-miterlimit="10" points="335.7,48.5 348.9,48.5 348.9,31.7
			326.4,31.7 		"/>
		<rect x="348.9" y="35.4" fill="none" stroke="#FDEB00" stroke-width="2.126" stroke-miterlimit="10" width="8" height="9.4"/>
		<polyline fill="none" stroke="#FDEB00" stroke-width="2.126" stroke-miterlimit="10" points="391.8,263.8 391.8,271.4 364,271.4
			364,263.8 		"/>
		<path fill="none" stroke="#FDEB00" stroke-width="2.126" stroke-miterlimit="10" d="M391.8,263.8c0-7.7-6.2-13.9-13.9-13.9
			s-13.9,6.2-13.9,13.9"/>
		<line fill="none" stroke="#FDEB00" stroke-width="1.4173" stroke-miterlimit="10" x1="364" y1="264.9" x2="391.8" y2="264.9"/>
		<path fill="#f6f7f7" stroke="#FDEB00" stroke-width="2.126" stroke-miterlimit="10" d="M268,59.6h69.3c0-22.8-15.5-39-34.7-39
			S268,36.6,268,59.6z"/>
	</g>
</g>
</svg>
