<?xml version="1.0" encoding="utf-8"?>
<!-- Generator: Adobe Illustrator 18.0.0, SVG Export Plug-In . SVG Version: 6.00 Build 0)  -->
<!DOCTYPE svg PUBLIC "-//W3C//DTD SVG 1.1//EN" "http://www.w3.org/Graphics/SVG/1.1/DTD/svg11.dtd">
<svg version="1.1" id="Layer_1" xmlns="http://www.w3.org/2000/svg" xmlns:xlink="http://www.w3.org/1999/xlink" x="0px" y="0px"
	 viewBox="0 0 430 300" enable-background="new 0 0 430 300" xml:space="preserve">
<g>
	<g>
		<path fill="#FFFFFF" stroke="#FDEB00" stroke-width="2.126" stroke-miterlimit="10" d="M228.2,276c0,3.7,3.2,6.8,7.2,6.8
			s7.2-3,7.2-6.8h106.1V136.4H235.4H122.1V276H228.2z"/>
		<path fill="#FFFFFF" stroke="#FDEB00" stroke-width="2.126" stroke-miterlimit="10" d="M230.8,271c0,2.4,2.1,4.4,4.6,4.4
			s4.6-2,4.6-4.4h103.4V131.3H235.4H127.3V271H230.8z"/>
		<polygon fill="#FFFFFF" stroke="#FDEB00" stroke-width="2.126" stroke-miterlimit="10" points="235.4,126.3 132.6,126.3 
			132.6,266 338.2,266 338.2,126.3 		"/>
		<line fill="none" stroke="#FDEB00" stroke-width="2.126" stroke-miterlimit="10" x1="235.4" y1="126.3" x2="235.4" y2="265.3"/>
		<line fill="#FFFFFF" stroke="#FDEB00" stroke-width="1.4173" stroke-miterlimit="10" x1="141.2" y1="212" x2="181" y2="212"/>
		
			<line fill="#FFFFFF" stroke="#FDEB00" stroke-width="1.4173" stroke-miterlimit="10" x1="141.2" y1="133.6" x2="226.8" y2="133.6"/>
		<line fill="#FFFFFF" stroke="#FDEB00" stroke-width="1.4173" stroke-miterlimit="10" x1="141.2" y1="219" x2="181" y2="219"/>
		<line fill="#FFFFFF" stroke="#FDEB00" stroke-width="1.4173" stroke-miterlimit="10" x1="141.2" y1="225.9" x2="181" y2="225.9"/>
		<line fill="#FFFFFF" stroke="#FDEB00" stroke-width="1.4173" stroke-miterlimit="10" x1="141.2" y1="232.8" x2="181" y2="232.8"/>
		<line fill="#FFFFFF" stroke="#FDEB00" stroke-width="1.4173" stroke-miterlimit="10" x1="141.2" y1="239.7" x2="181" y2="239.7"/>
		<line fill="#FFFFFF" stroke="#FDEB00" stroke-width="1.4173" stroke-miterlimit="10" x1="141.2" y1="246.6" x2="181" y2="246.6"/>
		<line fill="#FFFFFF" stroke="#FDEB00" stroke-width="1.4173" stroke-miterlimit="10" x1="141.2" y1="253.6" x2="181" y2="253.6"/>
		<rect x="142" y="160" fill="#FFFFFF" stroke="#FDEB00" stroke-width="2.126" stroke-miterlimit="10" width="38.2" height="37.2"/>
	</g>
	<path fill="none" stroke="#FDEB00" stroke-width="2.126" stroke-miterlimit="10" d="M422.7,241.1v26.1c0,1.7-1.4,3-3.2,3h-31.7
		c-1.8,0-3.2-1.4-3.2-3v-26.1v15.5v-26.1c0-1.7,1.4-3,3.2-3h31.7c1.8,0,3.2,1.4,3.2,3v26.1"/>
	<path fill="none" stroke="#FDEB00" stroke-width="2.126" stroke-miterlimit="10" d="M419.7,271.7v2.8c0,0.8-0.7,1.5-1.5,1.5h-29
		c-0.8,0-1.5-0.7-1.5-1.5v-2.8"/>
	<polyline fill="none" stroke="#FDEB00" stroke-width="2.126" stroke-miterlimit="10" points="387.7,274.6 387.7,270.2 419.7,270.2 
		419.7,274.6 	"/>
	<g>
		<path fill="#FDEB00" d="M232.2,62.1c-1.7,0-3.1-1.4-3.1-3.1c0-1.7,1.4-3.1,3.1-3.1v1.4c-0.9,0-1.7,0.8-1.7,1.7
			c0,0.9,0.8,1.7,1.7,1.7V62.1z"/>
		<path fill="#FDEB00" d="M240.1,57.3v-1.4c0.9,0,1.7-0.8,1.7-1.7c0-0.9-0.8-1.7-1.7-1.7v-1.4c1.7,0,3.1,1.4,3.1,3.1
			C243.2,55.9,241.8,57.3,240.1,57.3z"/>
		<path fill="#FDEB00" d="M232.2,52.5c-1.7,0-3.1-1.4-3.1-3.1c0-1.7,1.4-3.1,3.1-3.1v1.4c-0.9,0-1.7,0.8-1.7,1.7
			c0,0.9,0.8,1.7,1.7,1.7V52.5z"/>
		<path fill="#FDEB00" d="M237.8,62.1h-5.7c-0.4,0-0.7-0.3-0.7-0.7s0.3-0.7,0.7-0.7h5.7c0.4,0,0.7,0.3,0.7,0.7
			S238.2,62.1,237.8,62.1z"/>
		<path fill="#FDEB00" d="M240.3,57.3h-8.2c-0.4,0-0.7-0.3-0.7-0.7s0.3-0.7,0.7-0.7h8.2c0.4,0,0.7,0.3,0.7,0.7
			S240.7,57.3,240.3,57.3z"/>
		<path fill="#FDEB00" d="M235.6,47.7c-0.4,0-0.7-0.3-0.7-0.7V33.2c0-0.4,0.3-0.7,0.7-0.7s0.7,0.3,0.7,0.7V47
			C236.3,47.4,236,47.7,235.6,47.7z"/>
		<path fill="#FDEB00" d="M240.3,52.5h-8.2c-0.4,0-0.7-0.3-0.7-0.7s0.3-0.7,0.7-0.7h8.2c0.4,0,0.7,0.3,0.7,0.7
			S240.7,52.5,240.3,52.5z"/>
		<path fill="#FDEB00" d="M235.6,47.7h-3.4c-0.4,0-0.7-0.3-0.7-0.7s0.3-0.7,0.7-0.7h3.4c0.4,0,0.7,0.3,0.7,0.7S236,47.7,235.6,47.7z
			"/>
		<path fill="#FDEB00" d="M243.7,33.1h-16.5c-0.6,0-1.1-0.5-1.1-1.1s0.5-1.1,1.1-1.1h16.5c0.6,0,1.1,0.5,1.1,1.1
			S244.2,33.1,243.7,33.1z"/>
		<path fill="#FDEB00" d="M245,35.1V21.6c0-0.4-0.4-0.8-0.8-1l-8.3-3.6c-0.3-0.1-0.6-0.1-0.9,0l-8.3,3.6c-0.4,0.2-0.7,0.6-0.7,1
			v13.5c-9,3.8-15.6,13-15.6,23.2c0,13.8,11.2,25,25,25s25.1-11.2,25.1-25C260.5,48.1,254,38.9,245,35.1z M235.6,19.2l7.4,3.1v6
			l-8.2-8.7L235.6,19.2z M235.4,81.1c-12.6,0-22.9-10.7-22.9-23.3c0-9.5,5.9-17.8,14.8-21.8c0,0,0,0,0,0c0.5,0,0.7,0.3,0.7-0.2V24.7
			l7.4,7.8c0.1,0.2,0.4,0.2,0.6,0.2c0.2,0,0.4-0.1,0.5-0.2c0.3-0.3,0.3-0.7,0-1l-8.3-8.9c0,0-0.2,0-0.2-0.1v-0.3l5.2-2.1l9.8,10.2
			v5.4c0,0.5,0.2,1,0.7,1c8.9,3.3,14.7,11.9,14.7,21.4C258.4,70.9,248,81.1,235.4,81.1z"/>
	</g>
	<g>
		<path fill="#FFF000" d="M284.2,208.6l-2.8-6.4H268l-2.8,6.4H262l11.3-25.3h2.8l11.3,25.3H284.2z M274.7,187l-5.5,12.5h11
			L274.7,187z"/>
		<path fill="#FFF000" d="M311.6,208.6h-2.9v-2.9c-1.7,2.2-4.3,3.4-7.4,3.4c-4.9,0-9.3-3.9-9.3-9.8c0-5.9,4.3-9.8,9.3-9.8
			c3.1,0,5.7,1.2,7.4,3.4v-3h2.9V208.6z M308.7,199.3c0-4.5-3.4-7.2-6.9-7.2c-3.8,0-6.9,2.8-6.9,7.2c0,4.4,3.1,7.2,6.9,7.2
			C305.3,206.5,308.7,203.7,308.7,199.3z"/>
	</g>
	<g>
		<g>
			<polyline fill="none" stroke="#FDEB00" stroke-width="2.126" stroke-miterlimit="10" points="400.5,193.1 400.5,214.8 
				393.1,214.8 393.1,193.1 			"/>
			<polyline fill="none" stroke="#FDEB00" stroke-width="2.126" stroke-miterlimit="10" points="400,215.6 400,227.4 393.6,227.4 
				393.6,215.6 			"/>
			<path fill="none" stroke="#FDEB00" stroke-width="2.126" stroke-miterlimit="10" d="M393.1,193.4c0-2,1.7-3.7,3.7-3.7l0,0
				c2,0,3.7,1.7,3.7,3.7"/>
			<line fill="none" stroke="#FDEB00" stroke-width="1.4173" stroke-miterlimit="10" x1="400" y1="220.8" x2="393.6" y2="220.8"/>
			<line fill="none" stroke="#FDEB00" stroke-width="1.4173" stroke-miterlimit="10" x1="400" y1="194.2" x2="393.6" y2="194.2"/>
		</g>
		<g>
			<polyline fill="none" stroke="#FDEB00" stroke-width="2" stroke-miterlimit="10" points="407,227 407,203.1 410.5,196.7 
				414,203.1 414,227 			"/>
			<polyline fill="none" stroke="#FDEB00" stroke-width="2" stroke-miterlimit="10" points="414.2,203.5 410.5,205.4 407,203.6 			
				"/>
			<polygon fill="#FDEB00" points="409.4,199 412.2,199 410.8,196.4 			"/>
			<line fill="none" stroke="#FDEB00" stroke-miterlimit="10" x1="410.5" y1="205" x2="410.5" y2="227"/>
		</g>
	</g>
	<g>
		<polygon fill="#FAE900" points="67,270.6 10.9,247.4 17,232.7 37.6,241.3 33.7,237.3 15.8,229.9 8.1,248.5 69,273.8 68.3,271.9 		
			"/>
		<polygon fill="#FAE900" points="66.1,266.8 42.8,243.4 37.6,241.3 67,270.6 67.9,271 		"/>
		<polygon fill="#FAE900" points="23,223.7 34.2,212.4 50.3,228.4 48.1,223.3 34.2,209.4 20,223.7 33.7,237.3 38.8,239.5 		"/>
		<polygon fill="#FAE900" points="42.8,243.4 38.8,239.5 33.7,237.3 37.6,241.3 		"/>
		<polygon fill="#FAE900" points="62.1,251.4 59.3,250.2 66.1,266.8 70.1,270.7 		"/>
		<polygon fill="#FAE900" points="43,205.3 57.7,199.3 81.4,256.6 82.3,257.5 84.4,258.4 58.8,196.5 40.2,204.2 48.1,223.3 
			52.1,227.2 		"/>
		<polygon fill="#FAE900" points="60.9,248.6 54.2,232.4 50.3,228.4 58.1,247.5 		"/>
		<polygon fill="#FAE900" points="60.9,248.6 58.1,247.5 59.3,250.2 62.1,251.4 		"/>
		<polygon fill="#FAE900" points="54.2,232.4 52.1,227.2 48.1,223.3 50.3,228.4 		"/>
		<g>
			<g>
				<g>
					<g>
						<rect x="7.7" y="257" fill="#FFFFFF" width="77.9" height="18"/>
						<path fill="#FAE900" d="M86.6,276.1h-80v-20.1h80V276.1z M8.8,273.9h75.7v-15.9H8.8V273.9z"/>
					</g>
					<rect x="68.7" y="257" fill="#FAE900" width="2.1" height="18"/>
				</g>
			</g>
		</g>
		<g>
			<g>
				<g>
					<g>
						<rect x="67.6" y="197.1" fill="#FFFFFF" width="18" height="77.9"/>
						<path fill="#FBED1F" d="M86.6,276.1H67.7h-1.2v-80h20.1v65.5v0.7V276.1z M68.7,273.9h15.9v-75.7H68.7V273.9z"/>
					</g>
					<rect x="67.6" y="258.1" fill="#FBED1F" width="18" height="2.1"/>
				</g>
			</g>
		</g>
		<circle fill="#FAE900" cx="76.6" cy="267.1" r="2.6"/>
		<g>
			<path fill="#FBED1F" d="M76.9,248.8c0.2,0.3,0.4,0.7,0.4,1.2v1h1.8v1h-4.9V250c0-0.5,0.1-0.9,0.4-1.2c0.3-0.3,0.6-0.4,1.2-0.4
				C76.3,248.4,76.7,248.5,76.9,248.8z M75.2,249.6c-0.1,0.1-0.2,0.3-0.2,0.5v0.9h1.5v-0.9c0-0.2-0.1-0.4-0.2-0.5
				c-0.1-0.1-0.3-0.2-0.6-0.2C75.4,249.4,75.3,249.5,75.2,249.6z"/>
			<path fill="#FBED1F" d="M74.1,246.3v-1.2l4.9-1.7v1.1l-1,0.3v1.8l1,0.3v1.1L74.1,246.3z M77.2,246.4v-1.3l-1.9,0.6L77.2,246.4z"
				/>
			<path fill="#FBED1F" d="M74.1,242.4v-1.1l3.4-2h-3.4v-1h4.9v1l-3.5,2h3.5v1H74.1z"/>
			<path fill="#FBED1F" d="M74.1,233.6H75v1.5h4.1v1H75v1.5h-0.9V233.6z"/>
			<path fill="#FBED1F" d="M78.6,228.9c0.4,0.4,0.6,0.9,0.6,1.6s-0.2,1.2-0.6,1.6c-0.5,0.5-1.1,0.7-2,0.7c-0.9,0-1.6-0.2-2-0.7
				c-0.4-0.4-0.6-0.9-0.6-1.6s0.2-1.2,0.6-1.6c0.5-0.5,1.1-0.7,2-0.7C77.5,228.2,78.2,228.4,78.6,228.9z M77.9,229.6
				c-0.3-0.2-0.7-0.4-1.3-0.4c-0.6,0-1,0.1-1.3,0.4c-0.3,0.2-0.5,0.6-0.5,1s0.2,0.7,0.5,1c0.3,0.2,0.7,0.4,1.3,0.4s1-0.1,1.3-0.4
				c0.3-0.2,0.5-0.6,0.5-1S78.2,229.8,77.9,229.6z"/>
			<path fill="#FBED1F" d="M74.1,227.1V226l3.4-2h-3.4v-1h4.9v1l-3.5,2h3.5v1H74.1z"/>
			<path fill="#FBED1F" d="M75,218.1v2.6h1v-2.4h0.9v2.4h1.3V218h0.9v3.7h-4.9v-3.6H75z"/>
		</g>
	</g>
</g>
</svg>
