<?xml version="1.0" encoding="utf-8"?>
<!-- Generator: Adobe Illustrator 18.1.1, SVG Export Plug-In . SVG Version: 6.00 Build 0)  -->
<svg version="1.1" id="Layer_1" xmlns="http://www.w3.org/2000/svg" xmlns:xlink="http://www.w3.org/1999/xlink" x="0px" y="0px"
	 viewBox="0 0 439.3 276.4" enable-background="new 0 0 439.3 276.4" xml:space="preserve">
<g>
	<g>
		<circle fill="#FAE900" cx="203.3" cy="90.7" r="2"/>
		<path fill="none" d="M206.7,156.5v-29.1h-96.1c-0.5,0-0.9,0.4-0.9,0.9v70.6c0,0.5,0.4,0.9,0.9,0.9H219c0.5,0,0.9-0.4,0.9-0.9
			v-39.3h-10.2C208.1,159.6,206.7,158.2,206.7,156.5z M125.9,143.9c0.3,0.2,0.4,0.7,0.1,1c-0.1,0.2-0.4,0.3-0.6,0.3
			c-0.1,0-0.3,0-0.4-0.1l-4.9-3.6c-0.2-0.1-0.3-0.3-0.3-0.6s0.1-0.4,0.3-0.6l4.9-3.6c0.3-0.2,0.8-0.2,1,0.1c0.2,0.3,0.2,0.8-0.1,1
			l-4.1,3L125.9,143.9z M203.1,176.3l-7,15.5c-0.1,0.3-0.4,0.4-0.6,0.4c-0.1,0-0.2,0-0.3-0.1c-0.4-0.2-0.5-0.6-0.4-0.9l7-15.5
			c0.2-0.4,0.6-0.5,0.9-0.4C203.1,175.5,203.2,175.9,203.1,176.3z M210.9,186c0,0.2-0.1,0.4-0.3,0.6l-4.9,3.6
			c-0.1,0.1-0.3,0.1-0.4,0.1c-0.2,0-0.4-0.1-0.6-0.3c-0.2-0.3-0.2-0.8,0.1-1l4.1-3l-4.1-3c-0.3-0.2-0.4-0.7-0.1-1
			c0.2-0.3,0.7-0.4,1-0.1l4.9,3.6C210.8,185.6,210.9,185.8,210.9,186z"/>
		<path fill="#FAE900" d="M204.7,182c-0.2,0.3-0.2,0.8,0.1,1l4.1,3l-4.1,3c-0.3,0.2-0.4,0.7-0.1,1c0.1,0.2,0.4,0.3,0.6,0.3
			c0.1,0,0.3,0,0.4-0.1l4.9-3.6c0.2-0.1,0.3-0.3,0.3-0.6s-0.1-0.4-0.3-0.6l-4.9-3.6C205.4,181.6,205,181.7,204.7,182z"/>
		<path fill="#FAE900" d="M126,136.9c-0.2-0.3-0.7-0.4-1-0.1l-4.9,3.6c-0.2,0.1-0.3,0.3-0.3,0.6s0.1,0.4,0.3,0.6l4.9,3.6
			c0.1,0.1,0.3,0.1,0.4,0.1c0.2,0,0.4-0.1,0.6-0.3c0.2-0.3,0.2-0.8-0.1-1l-4.1-3l4.1-3C126.2,137.6,126.2,137.2,126,136.9z"/>
		<path fill="#FAE900" d="M202.7,175.4c-0.4-0.2-0.8,0-0.9,0.4l-7,15.5c-0.2,0.4,0,0.8,0.4,0.9c0.1,0,0.2,0.1,0.3,0.1
			c0.3,0,0.5-0.2,0.6-0.4l7-15.5C203.2,175.9,203.1,175.5,202.7,175.4z"/>
		<g>
			<path fill="#FAE900" d="M269.7,115h-60c-1.7,0-3.1,1.4-3.1,3.1v7.2h-96.1c-1.7,0-3.1,1.4-3.1,3.1v70.6c0,1.7,1.4,3.1,3.1,3.1H219
				c1.7,0,3.1-1.4,3.1-3.1v-39.3h47.6c1.7,0,3.1-1.4,3.1-3.1v-38.4C272.8,116.4,271.4,115,269.7,115z M220,198.9
				c0,0.5-0.4,0.9-0.9,0.9H110.6c-0.5,0-0.9-0.4-0.9-0.9v-70.6c0-0.5,0.4-0.9,0.9-0.9h96.1v29.1c0,1.7,1.4,3.1,3.1,3.1H220V198.9z
				 M270.6,156.5c0,0.5-0.4,0.9-0.9,0.9h-47.6H220h-10.2c-0.5,0-0.9-0.4-0.9-0.9v-29.1v-2.1v-7.2c0-0.5,0.4-0.9,0.9-0.9h60
				c0.5,0,0.9,0.4,0.9,0.9V156.5z"/>
			<g>
				<circle fill="#FAE900" cx="213.1" cy="121.4" r="1.1"/>
				<circle fill="#FAE900" cx="216.7" cy="121.4" r="1.1"/>
				<circle fill="#FAE900" cx="220.3" cy="121.4" r="1.1"/>
			</g>
		</g>
		<path fill="#FAE900" d="M323.3,81.4H83.2c-2.2,0-4.1,1.8-4.1,4.1v146c0,2.2,1.8,4.1,4.1,4.1h90.9v27.1h-19.6
			c-1.6,0-2.9,1.3-2.9,2.9v3.2c0,1.6,1.3,2.9,2.9,2.9H252c1.6,0,2.9-1.3,2.9-2.9v-3.2c0-1.6-1.3-2.9-2.9-2.9h-19.6v-27.1h90.9
			c2.2,0,4.1-1.8,4.1-4.1v-146C327.4,83.3,325.6,81.4,323.3,81.4z M83.2,83.6h240.2c1.1,0,1.9,0.9,1.9,1.9v12.6h-244V85.5
			C81.2,84.4,82.1,83.6,83.2,83.6z M252,264.8c0.4,0,0.8,0.4,0.8,0.8v3.2c0,0.4-0.4,0.8-0.8,0.8h-97.5c-0.4,0-0.8-0.4-0.8-0.8v-3.2
			c0-0.4,0.4-0.8,0.8-0.8H252z M176.2,262.6v-27.1h54.1v27.1H176.2z M325.3,231.5c0,1.1-0.9,1.9-1.9,1.9H83.2
			c-1.1,0-1.9-0.9-1.9-1.9v-13.9h244V231.5z M81.2,216.2V99.5h244v116.6H81.2z"/>
	</g>
	<g>
		<path fill="#FAE900" d="M54.4,225.8H24.5c-2.2,0-4.1,1.8-4.1,4.1v8.3c-5.4,0.5-9.6,5.1-9.6,10.6s4.2,10.1,9.6,10.6v12.3h38v-41.8
			C58.5,227.6,56.7,225.8,54.4,225.8z M13,248.7c0-4.3,3.3-7.9,7.5-8.4v16.9C16.3,256.7,13,253.1,13,248.7z M56.3,269.5H22.6v-39.6
			c0-1.1,0.9-1.9,1.9-1.9h29.9c1.1,0,1.9,0.9,1.9,1.9V269.5z"/>
		<g>
			<path fill="#FAE900" d="M35.3,218.2c-0.6,0-1.1-0.5-1.1-1.1v-20.9c0-0.6,0.5-1.1,1.1-1.1s1.1,0.5,1.1,1.1v20.9
				C36.3,217.7,35.9,218.2,35.3,218.2z"/>
			<path fill="#FAE900" d="M43.7,218.2c-0.6,0-1.1-0.5-1.1-1.1v-9.5c0-0.6,0.5-1.1,1.1-1.1s1.1,0.5,1.1,1.1v9.5
				C44.7,217.7,44.3,218.2,43.7,218.2z"/>
		</g>
		<path fill="#FAE900" d="M39.5,258.3c-5.3,0-9.5-4.3-9.5-9.5c0-5.3,4.3-9.5,9.5-9.5c5.3,0,9.5,4.3,9.5,9.5
			C49,254,44.7,258.3,39.5,258.3z M39.5,240.6c-4.5,0-8.1,3.6-8.1,8.1s3.6,8.1,8.1,8.1s8.1-3.6,8.1-8.1S44,240.6,39.5,240.6z"/>
	</g>
	<path fill="none" d="M306.9,57.2c4.1,0,7.7-1.9,10.1-4.8h-20.3C299.2,55.4,302.8,57.2,306.9,57.2z"/>
	<path fill="#FAE900" d="M428.4,132.3c0-5.6-4.5-10.1-10.1-10.1c-0.1,0-0.2,0-0.3,0l-68.5-80.9h5.2v-3.7h8V26.1h-8v-3.7h-22.2
		c-6.4-6.9-15.1-11.1-25.2-11.1c-20.4,0-35.7,17.2-35.7,40v1.1h22.6c2.7,4.1,7.4,6.9,12.8,6.9s10-2.7,12.8-6.9H343v-1.1
		c0-0.3,0-0.6,0-0.9l66,78c-0.5,1.2-0.8,2.5-0.8,3.9c0,3.7,2,6.9,4.9,8.7l-34.7,100.3c-6.3,1.8-10.9,7.5-10.9,14.3h0v6.5h-15.9
		c-1.7,0-3.1,1.4-3.1,3.1v3.4c0,1.7,1.4,3.1,3.1,3.1h61.8c1.7,0,3.1-1.4,3.1-3.1v-3.4c0-1.7-1.4-3.1-3.1-3.1h-15.9v-6.5h0
		c0-5.6-3.2-10.6-7.8-13.1l35.5-102.8C427.2,137.9,428.4,135.3,428.4,132.3z M354.7,28.3h5.9v7.3h-5.9V28.3z M306.9,57.2
		c-4.1,0-7.7-1.9-10.1-4.8H317C314.6,55.4,311,57.2,306.9,57.2z M273.7,50.3c0.5-21.1,14.7-36.8,33.6-36.8s33.1,15.8,33.6,36.8
		H273.7z M334.2,24.6h18.3v14.6h-11.1C340,33.7,337.5,28.7,334.2,24.6z M342.8,46.9c-0.2-1.9-0.4-3.8-0.8-5.6h4.7l68.9,81.3
		c-2.2,0.6-4.1,2-5.4,3.8L342.8,46.9z M369.7,257.4h25.7v4.7h-25.7V257.4z M413.4,264.2c0.5,0,0.9,0.4,0.9,0.9v3.4
		c0,0.5-0.4,0.9-0.9,0.9h-61.8c-0.5,0-0.9-0.4-0.9-0.9v-3.4c0-0.5,0.4-0.9,0.9-0.9H413.4z M395.4,255.6L395.4,255.6l0,0.4h-25.7
		v-0.4h0c0-7.1,5.8-12.8,12.8-12.8S395.4,248.5,395.4,255.6z M387.8,241.6c-1.6-0.6-3.4-1-5.2-1c-0.6,0-1.1,0-1.6,0.1l34.2-98.9
		c1,0.3,2.1,0.5,3.2,0.5c1.4,0,2.7-0.3,3.9-0.8L387.8,241.6z M418.3,140.3c-4.4,0-8-3.6-8-8c0-4.4,3.6-8,8-8s8,3.6,8,8
		C426.3,136.7,422.7,140.3,418.3,140.3z"/>
</g>
</svg>
